<?xml version="1.0" standalone="no"?>
<!DOCTYPE svg PUBLIC "-//W3C//DTD SVG 20010904//EN"
 "http://www.w3.org/TR/2001/REC-SVG-20010904/DTD/svg10.dtd">
<svg version="1.0" xmlns="http://www.w3.org/2000/svg"
 width="512.000000pt" height="512.000000pt" viewBox="0 0 512.000000 512.000000"
 preserveAspectRatio="xMidYMid meet">

<g transform="translate(0.000000,512.000000) scale(0.100000,-0.100000)"
fill="#000000" stroke="none">
<path d="M2743 5106 c-61 -20 -100 -51 -133 -109 l-30 -52 0 -455 c0 -511 -1
-502 75 -569 52 -45 94 -61 162 -61 73 0 127 24 174 77 64 71 64 71 64 558 l0
440 -30 54 c-35 63 -76 97 -141 117 -57 17 -86 17 -141 0z"/>
<path d="M1120 4438 c-155 -28 -237 -215 -156 -352 13 -22 159 -175 323 -338
218 -217 310 -302 343 -317 83 -38 181 -23 250 37 76 65 103 153 75 249 -16
56 -26 68 -328 371 -205 205 -326 319 -352 331 -51 24 -98 30 -155 19z"/>
<path d="M417 2786 c-59 -22 -103 -62 -132 -121 -55 -111 -16 -244 89 -310
l49 -30 446 -3 c396 -2 451 -1 490 14 55 21 106 66 134 118 30 57 30 155 -1
212 -27 53 -90 107 -141 122 -59 18 -883 16 -934 -2z"/>
<path d="M4260 2780 c-96 -45 -144 -118 -144 -220 0 -76 23 -130 77 -177 66
-58 103 -65 314 -61 l190 3 49 30 c30 19 60 49 79 79 27 44 30 58 30 126 0 68
-3 82 -30 126 -19 30 -49 60 -79 79 l-49 30 -196 3 c-181 2 -200 1 -241 -18z"/>
<path d="M1625 1689 c-59 -31 -630 -602 -661 -661 -18 -36 -24 -63 -24 -111 0
-83 42 -157 114 -202 43 -26 59 -30 120 -30 49 0 82 6 106 19 48 25 637 612
661 659 61 117 15 263 -101 322 -64 32 -156 34 -215 4z"/>
<path d="M3789 1687 c-118 -62 -162 -217 -95 -331 13 -22 129 -145 258 -272
258 -256 262 -259 378 -252 84 4 138 38 185 113 26 42 30 58 30 119 0 59 -5
79 -27 116 -38 64 -474 495 -520 514 -57 24 -156 21 -209 -7z"/>
<path d="M2724 1246 c-47 -21 -105 -77 -125 -121 -17 -37 -19 -76 -19 -495 l0
-455 30 -52 c94 -164 323 -159 415 8 l30 54 0 440 c0 347 -3 448 -14 479 -18
51 -76 115 -126 137 -48 22 -146 24 -191 5z"/>
</g>
</svg>
